<?xml version="1.0" encoding="UTF-8" standalone="no"?>
<!-- Created with Inkscape (http://www.inkscape.org/) -->

<svg
   version="1.1"
   id="svg1"
   width="950"
   height="950"
   viewBox="0 0 950 950"
   sodipodi:docname="logo-editada-estofados-inkskape.svg"
   inkscape:version="1.4.2 (f4327f4, 2025-05-13)"
   xmlns:inkscape="http://www.inkscape.org/namespaces/inkscape"
   xmlns:sodipodi="http://sodipodi.sourceforge.net/DTD/sodipodi-0.dtd"
   xmlns="http://www.w3.org/2000/svg"
   xmlns:svg="http://www.w3.org/2000/svg">
  <defs
     id="defs1" />
  <sodipodi:namedview
     id="namedview1"
     pagecolor="#ffffff"
     bordercolor="#000000"
     borderopacity="0.25"
     inkscape:showpageshadow="2"
     inkscape:pageopacity="0.0"
     inkscape:pagecheckerboard="0"
     inkscape:deskcolor="#d1d1d1"
     inkscape:zoom="0.78631579"
     inkscape:cx="475"
     inkscape:cy="475"
     inkscape:window-width="1920"
     inkscape:window-height="986"
     inkscape:window-x="-11"
     inkscape:window-y="-11"
     inkscape:window-maximized="1"
     inkscape:current-layer="g1" />
  <g
     inkscape:groupmode="layer"
     inkscape:label="Image"
     id="g1">
    <path
       style="fill:#002657;fill-opacity:1"
       d="M -4.2971888e-6,475 V -4.4444445e-6 H 475 949.99993 V 475 950 H 475 -4.2971889e-6 Z M 451.78527,898.60802 c 0.5536,-21.13687 -5.45998,-36.32141 -20.25916,-51.15528 -7.3943,-7.41163 -10.56281,-9.7906 -17.52611,-13.1589 -12.95246,-6.2654 -18.67695,-7.37764 -41.23645,-8.01206 l -19.73645,-0.55502 -9.76355,-12.09182 c -5.36995,-6.6505 -11.605,-14.17404 -13.85567,-16.71899 l -4.09212,-4.62718 -0.70028,-18.39439 C 324.23033,763.77747 322.82034,734.125 321.48217,708 c -1.33817,-26.125 -3.5714,-70.9 -4.96273,-99.5 -1.39133,-28.6 -3.19257,-64.15 -4.00275,-79 -0.81019,-14.85 -2.61296,-50.4 -4.00617,-79 -5.64544,-115.89077 -5.25681,-110.39844 -9.02164,-127.5 -3.89289,-17.68331 -7.90219,-35.01943 -16.99823,-73.5 -3.51025,-14.85 -7.32832,-31.255 -8.4846,-36.45555 -1.15629,-5.20055 -2.59855,-10.05345 -3.20504,-10.78422 -0.6962,-0.83887 -2.78138,-1.2239 -5.65636,-1.04445 L 260.591,201.5 258.74301,194 c -2.73431,-11.09712 -3.33019,-26.90286 -1.33368,-35.37566 8.12991,-34.50163 50.625,-63.964361 114.89368,-79.658196 19.16092,-4.678924 33.09386,-6.354943 52.69699,-6.339013 18.53665,0.01506 28.20061,1.521086 41.67287,6.494264 21.32603,7.872334 36.45773,23.940735 42.25887,44.874845 2.34752,8.47129 2.82908,26.69553 1.00422,38.00376 -1.71893,10.65179 -7.85692,27.59554 -15.39593,42.5 -8.30578,16.42035 -14.7164,26.35364 -30.65499,47.5 -11.83932,15.70771 -14.84456,19.46699 -52.46701,65.63146 -33.87532,41.56657 -47.24918,60.49474 -58.81752,83.24504 -7.1173,13.99689 -12.38664,28.51554 -15.28814,42.1235 -2.82296,13.23967 -2.56061,40.14111 0.52664,54 10.29404,46.21072 42.8667,90.88912 87.66099,120.2405 21.1948,13.88785 41.92639,22.9236 66.90782,29.16138 l 12.90781,3.22304 4.85684,17.93754 c 11.60358,42.855 27.96726,103.08126 28.44691,104.69837 0.39532,1.33283 -0.20713,1.90672 -2.47851,2.361 -4.30882,0.86176 -7.29175,4.503 -7.83646,9.5659 -0.43018,3.99842 2.30164,21.92182 4.69722,30.81832 0.58339,2.16656 2.37229,4.97224 4.09398,6.42095 2.83526,2.38571 3.78017,2.573 12.98112,2.573 5.4578,0 9.92327,0.17062 9.92327,0.37916 0,0.20853 -1.23539,3.02103 -2.74531,6.25 -2.47019,5.28249 -2.74579,6.97321 -2.75,16.87084 -0.004,10.28039 0.20233,11.43698 3.15983,17.67961 7.9028,16.68107 22.64172,25.57999 40.78951,24.62747 15.22497,-0.79911 27.66387,-9.17598 34.62637,-23.31884 3.26935,-6.64099 3.4196,-7.4332 3.4196,-18.03059 0,-10.76317 -0.10674,-11.29945 -3.68318,-18.50452 -2.02575,-4.08106 -3.58743,-7.51585 -3.47041,-7.63287 0.20688,-0.20688 58.41752,-2.31206 128.90448,-4.66181 19.11298,-0.63715 34.63538,-0.93345 34.49428,-0.65845 -0.1411,0.275 -1.5122,2.88837 -3.0469,5.80749 -5.824,11.07818 -5.9368,26.43889 -0.2848,38.78444 3.2716,7.14616 12.38776,16.21175 20.08646,19.97511 5.5768,2.72609 6.8111,2.93296 17.5,2.93296 10.5914,0 11.9542,-0.22293 17.2477,-2.82151 23.9686,-11.76615 31.8768,-41.19581 16.9139,-62.94364 l -3.149,-4.577 6.7362,-0.72139 c 5.779,-0.61889 7.199,-1.18423 9.9937,-3.97892 2.6844,-2.68441 3.2555,-4.02288 3.246,-7.60754 -0.018,-6.96389 -4.5024,-31.45929 -6.2458,-34.11999 -1.8789,-2.86752 -7.4616,-5.73001 -11.1752,-5.73001 -1.4466,0 -2.7969,-0.5625 -3.0005,-1.25 -0.3766,-1.2715 -5.3495,-22.43073 -33.0793,-140.75 -8.5719,-36.575 -16.4403,-70.1 -17.4853,-74.5 -1.045,-4.4 -5.75006,-24.65 -10.45556,-45 -7.7283,-33.42248 -14.0663,-60.43288 -15.1449,-64.54221 -0.2913,-1.1099 0.8617,-1.88093 4.1131,-2.75056 3.6046,-0.96408 4.8447,-1.89363 6.1345,-4.59832 1.5417,-3.23301 1.4657,-4.12314 -1.6418,-19.22594 -1.7921,-8.70979 -3.9407,-16.87732 -4.7746,-18.15008 -2.1578,-3.29323 -4.9512,-4.59475 -11.1649,-5.20203 l -5.4318,-0.53086 -3.1632,-8.11157 c -8.14053,-20.8752 -17.49691,-35.52593 -30.39198,-47.5894 -12.4202,-11.61923 -23.48577,-17.23526 -39.08134,-19.83467 -6.50188,-1.08371 -10.89301,-0.95398 -32.99985,0.97495 -14.025,1.22375 -37.65,3.28414 -52.5,4.57865 -14.85,1.29451 -45.45,3.96532 -68,5.93514 -22.55,1.96983 -43.92029,4.28082 -47.48953,5.13554 -19.78596,4.73813 -35.50453,20.11393 -43.09752,42.15769 C 449.26948,376.42076 447,392.00986 447,402.49342 447,410.98674 446.996,411 444.40113,411 c -3.89203,0 -8.97618,2.77192 -10.26257,5.59524 -1.66028,3.64391 -1.38925,8.34338 1.32097,22.90476 2.19812,11.80999 2.7012,13.25173 5.49582,15.75 2.5207,2.25341 4.0214,2.7519 8.31043,2.76054 l 5.23422,0.0106 7.75315,29.73945 c 9.44167,36.21622 21.57029,81.91335 26.67122,100.48946 2.07664,7.5625 3.34707,13.75 2.82317,13.75 -3.12564,0 -20.89824,-6.99428 -30.72407,-12.09124 -16.00653,-8.30309 -28.61925,-17.52475 -41.59087,-30.40876 -22.3744,-22.22329 -36.11384,-47.3223 -40.41644,-73.83218 -3.26775,-20.13376 1.55269,-44.73114 13.29512,-67.84137 13.14913,-25.87875 27.04446,-45.10602 69.22121,-95.78285 28.98061,-34.82121 41.48053,-50.59599 52.17379,-65.8428 C 555.02266,197.29049 565.0375,139.42457 541.68937,94.514009 525.29181,62.973005 493.8769,41.349512 454.5,34.499873 402.12337,25.388922 324.30407,44.393268 272,79.06842 257.64758,88.583399 239.12777,106.19618 232.11499,117 c -6.05394,9.32664 -11.65704,21.26603 -14.31351,30.5 -1.99977,6.95126 -2.29456,10.16303 -2.24868,24.5 0.0437,13.65825 0.44823,18.13616 2.34881,26 1.2628,5.225 2.5177,10.45339 2.78866,11.61864 0.3812,1.63928 -0.0902,2.26493 -2.08358,2.76523 -5.2682,1.32223 -5.50977,-0.27297 9.40635,62.11613 17.1992,71.93849 16.7129,69.40251 17.92945,93.5 2.58623,51.22838 4.15684,81.62692 5.03756,97.5 0.51878,9.35 1.63607,30.95 2.48285,48 0.84678,17.05 1.99133,39.775 2.54343,50.5 0.55211,10.725 1.68382,34.35 2.51491,52.5 0.83109,18.15 2.38847,49.425 3.46085,69.5 1.07237,20.075 2.70383,52.38626 3.62547,71.80281 l 1.6757,35.30281 -4.72556,6.69719 c -2.59906,3.68345 -7.72529,11.02297 -11.39163,16.31005 l -6.66607,9.61285 -19,0.5387 c -16.21448,0.45972 -20.27842,0.90457 -27.72007,3.03434 -25.25155,7.22688 -43.87398,26.28258 -49.78652,50.94485 -2.33371,9.73429 -2.80705,28.26033 -0.74341,29.0958 0.6875,0.27834 69.425,0.42834 152.75,0.33334 L 451.5,909.5 Z M 161.65177,890.25 c 2.19952,-15.68 9.87427,-28.3537 22.56851,-37.26852 7.32441,-5.14373 15.57251,-8.39684 25.35854,-10.00159 6.12822,-1.00493 134.81781,-1.47083 136.39866,-0.49381 0.48045,0.29693 10.46956,0.51435 22.19803,0.48316 23.52375,-0.0626 28.31428,0.68507 39.41926,6.15203 3.39009,1.66894 7.68063,4.66731 9.53452,6.66305 1.85389,1.99574 2.61459,3.05665 1.69045,2.35758 -1.42296,-1.0764 -1.85935,-0.9364 -2.84977,0.91421 -0.95,1.77509 -0.91617,2.05361 0.18026,1.48389 0.74237,-0.38574 0.0395,0.50094 -1.56188,1.9704 -2.33051,2.1385 -2.6299,2.84568 -1.5,3.54316 0.77641,0.47928 1.46271,1.78829 1.52511,2.90893 0.12497,2.24413 -1.15497,2.76073 -1.95118,0.78751 -0.31454,-0.77951 -0.5341,-0.62268 -0.58333,0.41667 -0.0434,0.91666 -0.64145,1.91131 -1.32895,2.21031 -0.6875,0.29901 -0.0916,0.30758 1.3242,0.019 1.63638,-0.33348 3.04385,0.0413 3.86331,1.02867 0.70901,0.85431 1.68296,1.30986 2.16434,1.01235 0.48138,-0.29751 0.60725,0.15745 0.27971,1.01101 -0.74011,1.92868 -1.14079,1.93556 -3.02442,0.0519 C 413.71342,873.85628 412,873.51904 412,874.83924 c 0,0.46157 -1.35,0.75892 -3,0.66076 -1.65,-0.0982 -3.03344,0.0867 -3.07431,0.41076 -0.0409,0.32408 -0.26694,1.62723 -0.50237,2.89588 -0.42374,2.28336 -0.34013,2.30355 8.28117,2 l 8.70923,-0.30664 0.85199,4.25 c 0.76595,3.8208 1.14328,4.25 3.73644,4.25 3.28705,0 5.93056,-3.0134 6.11664,-6.97251 0.13256,-2.82033 2.62063,5.86492 2.78521,9.72251 L 436,894 380.25,893.84981 c -30.6625,-0.0826 -53.725,-0.45365 -51.25,-0.82454 l 4.5,-0.67435 -3.25,-1.27329 c -3.64675,-1.42872 -3.76798,-2.11288 -1.819,-10.26559 0.74786,-3.12837 1.06933,-6.01302 0.71438,-6.41032 -0.35496,-0.3973 -0.11397,-0.41788 0.53552,-0.0457 0.6495,0.37215 1.46356,0.21929 1.80902,-0.33968 C 331.83538,873.45734 331.64148,873 331.05902,873 330.47656,873 330,872.52344 330,871.94098 c 0,-0.58246 0.44322,-0.78509 0.98494,-0.45029 0.60586,0.37445 0.76207,-0.50566 0.40585,-2.28674 -0.80766,-4.03829 2.88541,-12.15457 7.42568,-16.31943 2.02594,-1.85844 3.12103,-2.72772 2.43353,-1.93175 -0.6875,0.79598 -1.25,1.80723 -1.25,2.24723 0,1.05102 2.30682,0.5695 3.1928,-0.66646 0.38104,-0.53156 0.21344,-1.54406 -0.37245,-2.25 -0.76074,-0.91664 -0.71277,-1.78378 0.1678,-3.03354 0.67817,-0.9625 -1.06145,0.725 -3.86583,3.75 -6.43283,6.93891 -10.00766,14.37739 -10.72987,22.32663 -0.30848,3.39536 -1.48853,9.43587 -2.62233,13.42337 L 323.70865,894 H 242.4172 161.12574 Z M 351.75,892.28375 c -1.5125,-0.22913 -3.9875,-0.22913 -5.5,0 -1.5125,0.22912 -0.275,0.41659 2.75,0.41659 3.025,0 4.2625,-0.18747 2.75,-0.41659 z m 6.97917,0.11208 c -0.33229,-0.33229 -1.1948,-0.36781 -1.91667,-0.0789 -0.79773,0.31922 -0.56078,0.55618 0.60417,0.60416 1.05416,0.0434 1.64479,-0.19293 1.3125,-0.52522 z m 0.52083,-3.71304 c 4.42169,-0.16282 4.57861,-0.60166 1.25,-3.49584 -1.375,-1.19555 -2.5,-1.7267 -2.5,-1.18034 0,0.54637 -0.675,0.99339 -1.5,0.99339 -0.825,0 -1.5,-0.47656 -1.5,-1.05902 0,-0.58246 -0.43035,-0.79305 -0.95633,-0.46797 -0.52598,0.32507 -0.68081,1.36413 -0.34408,2.30902 0.40887,1.1473 -0.1039,0.91975 -1.54368,-0.68504 C 350.97016,883.77533 350,883.12612 350,883.6543 c 0,1.0458 -5.18985,0.96443 -6.92603,-0.10858 C 342.4415,883.15483 342,883.7284 342,884.94098 c 0,1.13246 -0.3375,2.00573 -0.75,1.9406 -0.4125,-0.0651 -2.325,-0.0264 -4.25,0.086 l -3.5,0.20438 3,0.915 c 1.65,0.50325 4.23541,0.72916 5.74535,0.50202 1.50994,-0.22715 3.03178,0.0505 3.38185,0.61689 0.39413,0.6377 2.3951,0.7605 5.25465,0.32247 2.53998,-0.38908 6.30565,-0.76955 8.36815,-0.8455 z m -13.73992,-2.6991 c 0.34546,-0.55897 1.04702,-0.75742 1.55902,-0.44098 1.38704,0.85723 1.12841,1.45729 -0.62812,1.45729 -0.85746,0 -1.27636,-0.45734 -0.9309,-1.01631 z M 373.5,887 c 0.33992,-0.55 0.16803,-1 -0.38197,-1 -0.55,0 -1.27811,0.45 -1.61803,1 -0.33992,0.55 -0.16803,1 0.38197,1 0.55,0 1.27811,-0.45 1.61803,-1 z m -3.5,-3 c 0,-0.55 -0.42344,-1 -0.94098,-1 -0.51754,0 -1.2191,0.45 -1.55902,1 -0.33992,0.55 0.0835,1 0.94098,1 0.85746,0 1.55902,-0.45 1.55902,-1 z m 29.5,-4 c -0.33992,-0.55 -2.50398,-0.94076 -4.80902,-0.86836 L 390.5,879.26328 394,880 c 5.22798,1.10044 6.18011,1.10044 5.5,0 z m -48.75,-0.68933 c -0.9625,-0.25152 -2.5375,-0.25152 -3.5,0 -0.9625,0.25153 -0.175,0.45733 1.75,0.45733 1.925,0 2.7125,-0.2058 1.75,-0.45733 z m 11.97917,0.0852 c -0.33229,-0.33229 -1.1948,-0.36781 -1.91667,-0.0789 -0.79773,0.31922 -0.56078,0.55618 0.60417,0.60416 1.05416,0.0434 1.64479,-0.19293 1.3125,-0.52522 z M 402,876 c 0,-0.55 -0.45,-1 -1,-1 -0.55,0 -1,0.45 -1,1 0,0.55 0.45,1 1,1 0.55,0 1,-0.45 1,-1 z m -5,-4 c 0,-0.55 -0.47656,-1 -1.05902,-1 -0.58246,0 -0.7809,0.45 -0.44098,1 0.33992,0.55 0.81648,1 1.05902,1 0.24254,0 0.44098,-0.45 0.44098,-1 z m -40.17488,-21.09573 c -0.10503,-2.68035 -0.7073,-4.32183 -1.7428,-4.75 -0.9077,-0.37532 0.76259,-0.90454 3.91768,-1.24127 4.56687,-0.48742 3.84747,-0.61466 -4.24021,-0.75 -9.56576,-0.16008 -9.71033,-0.1281 -8.07162,1.78577 0.91772,1.07183 2.03832,1.72027 2.49021,1.44099 0.45189,-0.27929 0.82162,0.14974 0.82162,0.9534 0,0.80365 1.35,1.9318 3,2.507 1.65,0.57519 3,1.74421 3,2.59782 0,0.85361 0.22176,1.55202 0.4928,1.55202 0.27104,0 0.42058,-1.84308 0.33232,-4.09573 z M 413,853.51685 c 0,-0.60643 -9.65401,-5.53369 -10.71676,-5.46967 -0.43078,0.0259 1.69176,1.35472 4.71676,2.95282 6.1387,3.24307 6,3.18489 6,2.51685 z M 392.5,845 c -1.65,-0.41985 -5.025,-0.74592 -7.5,-0.72458 l -4.5,0.0388 5,0.68579 c 2.75,0.37719 6.125,0.70325 7.5,0.72458 2.19444,0.0341 2.13332,-0.0545 -0.5,-0.72458 z m 18.75,34.26779 c -2.3375,-0.21053 -4.25,-0.71551 -4.25,-1.12218 0,-0.40666 1.9125,-0.65165 4.25,-0.54442 5.75504,0.26401 5.75,0.26278 5.75,1.39881 0,0.55 -0.3375,0.92138 -0.75,0.82529 -0.4125,-0.0961 -2.6625,-0.34696 -5,-0.5575 z m 178.08198,-5.17291 c -8.26259,-2.10931 -16.35582,-9.70381 -19.17574,-17.9941 -3.91982,-11.52387 1.06214,-24.66731 12.00448,-31.67032 3.43784,-2.20019 3.6277,-2.58903 3.11833,-6.38664 L 584.73666,814 h 6.63167 c 3.64742,0 6.96917,-0.009 7.38167,-0.0209 0.4125,-0.0115 0.89004,1.56988 1.06121,3.51417 0.2774,3.15098 0.87497,3.81658 5.5,6.12613 10.15852,5.07274 15.51617,12.38535 16.42606,22.41979 0.9654,10.64654 -4.87469,21.43242 -13.98994,25.83761 -4.84238,2.34021 -13.73922,3.41181 -18.41535,2.21807 z m -163.79599,-7.87207 c -2.11846,-3.14755 -3.04449,-5.05442 -2.05786,-4.23749 2.05753,1.70362 6.85522,9.01467 6.28792,9.58197 -0.20808,0.20807 -2.11161,-2.19694 -4.23006,-5.34448 z m -1.00301,3.72383 c 0.24475,-0.39601 -0.22505,-1.27611 -1.04399,-1.95578 -0.81894,-0.67966 -1.47477,-1.96815 -1.45739,-2.8633 0.0233,-1.19812 0.68291,-0.88724 2.5,1.1782 2.82281,3.20862 3.09032,4.36091 1.01239,4.36091 -0.80081,0 -1.25576,-0.32402 -1.01101,-0.72003 z m 395.96695,-0.82324 c -11.7593,-3.09199 -20.59156,-14.98934 -20.45606,-27.5549 0.094,-8.74468 5.29096,-17.64981 13.29806,-22.78793 4.6185,-2.96372 5.8389,-3.28056 12.6352,-3.28042 6.4593,1.4e-4 8.2754,0.41704 12.8464,2.94896 15.9117,8.81379 19.7673,29.36045 7.9211,42.21208 -2.2851,2.47906 -5.857,5.37577 -7.9374,6.43714 -4.2484,2.16736 -13.7633,3.21986 -18.3073,2.02507 z M 546.60257,807.84973 c -1.23154,-4.04242 -3.49508,-18.21463 -3.0295,-18.96795 C 543.8728,788.3968 546.5561,788 549.53596,788 c 4.54982,0 5.65937,-0.36848 6.92477,-2.29972 1.49512,-2.28184 1.76941,-2.30921 35.27305,-3.51907 18.57142,-0.67064 50.86622,-1.86706 71.76622,-2.65872 20.9,-0.79165 51.725,-1.91752 68.5,-2.50192 16.775,-0.5844 45.34997,-1.71409 63.49997,-2.51042 52.09936,-2.28585 48.25676,-2.30245 50.02076,0.2161 1.2418,1.77288 2.6884,2.23498 7.7529,2.47665 l 6.2263,0.2971 1.1403,5.77509 c 0.6271,3.1763 1.4329,7.72695 1.7906,10.11256 l 0.6505,4.33747 -3.7907,0.62643 c -2.0849,0.34454 -8.6044,0.63139 -14.4878,0.63744 -9.4775,0.01 -11.2331,0.29603 -15.3989,2.51101 -6.0019,3.19126 -13.3322,3.4458 -15.1555,0.52627 -1.121,-1.79511 -2.0704,-1.93073 -10.4905,-1.4986 -5.09186,0.26131 -23.43296,0.93249 -40.75793,1.49151 -96.08971,3.10046 -150.56548,4.97042 -159,5.45791 -5.225,0.30199 -20.1844,0.81306 -33.24312,1.13572 -19.44208,0.48038 -23.8176,0.34215 -24.15431,-0.76308 z M 282.59957,784.75 c -0.28764,-2.3375 -0.78332,-11.675 -1.10152,-20.75 -0.31819,-9.075 -1.0003,-24.15 -1.5158,-33.5 -1.1022,-19.99154 -2.08315,-39.71426 -5.47109,-110 -1.37859,-28.6 -2.95899,-60.1 -3.51201,-70 -1.10599,-19.79953 -7.33539,-142.82783 -9.03815,-178.5 -1.3832,-28.97755 -1.25072,-28.23582 -15.98484,-89.5 -5.23811,-21.77994 -12.79288,-53.96575 -13.13747,-55.96988 -0.27943,-1.62525 0.53609,-2.17706 4.66131,-3.15401 7.80507,-1.84842 9.03593,-1.71268 9.26221,1.02147 0.30749,3.71531 16.89072,69.08539 18.098,71.34122 1.13046,2.11228 6.84086,5.2612 9.54092,5.2612 0.87938,0 1.6305,0.5625 1.66916,1.25 0.0387,0.6875 0.40452,0.39842 0.81303,-0.64239 0.8046,-2.04999 1.45209,0.0797 7.11205,23.39239 2.91472,12.00539 3.13229,14.49822 5.49856,63 2.13677,43.79752 3.1229,63.28398 6.02209,119 0.30051,5.775 1.42633,27.825 2.50183,49 1.07551,21.175 2.42467,47.5 2.99813,58.5 0.57347,11 2.14847,43.175 3.50001,71.5 2.72727,57.15739 4.22796,86.09927 4.99074,96.25 l 0.50723,6.75 h -13.44571 -13.4457 z M 524.14751,660.65226 c -0.51869,-1.73374 -2.19501,-8.03494 -3.72516,-14.00267 -1.53015,-5.96772 -3.26364,-10.9787 -3.85222,-11.1355 -0.58857,-0.1568 -7.37013,-1.7494 -15.07013,-3.53911 -31.06397,-7.2202 -55.42992,-18.33467 -79,-36.03565 -34.03141,-25.55738 -59.23707,-61.85882 -68.44361,-98.57315 -7.86447,-31.36237 -3.32688,-59.69941 15.11076,-94.36618 9.37052,-17.61859 26.15054,-40.58884 58.80615,-80.5 55.49605,-67.82639 66.52383,-82.96976 80.46877,-110.5 13.33088,-26.31794 18.05591,-43.98074 18.05714,-67.5 9.6e-4,-18.18144 -1.57624,-25.59267 -8.52897,-40.07746 -14.82963,-30.894964 -47.87211,-47.724267 -93.31107,-47.525506 -18.55684,0.08117 -27.7543,1.078504 -48.10019,5.215773 C 350.43353,67.425331 329.0878,74.783868 306.69875,86.195809 288.10439,95.673548 277.73122,102.98036 266,114.86377 c -11.76162,11.91422 -18.11443,21.64352 -22.62558,34.65099 -2.52743,7.28759 -2.77062,9.25206 -2.78359,22.48524 -0.0116,11.80006 0.3976,16.06175 2.19748,22.88738 1.21643,4.61306 2.21169,8.94582 2.21169,9.62836 0,0.68254 -1.82675,1.70466 -4.05944,2.27138 -3.8515,0.97761 -4.10912,0.89973 -5.02932,-1.52058 -1.7496,-4.60179 -4.73463,-19.61677 -5.42069,-27.26654 -3.53982,-39.47001 25.89216,-77.50816 79.45921,-102.693762 39.45748,-18.551711 83.79055,-28.38362 121.55024,-26.956645 23.57092,0.890768 36.02424,3.81259 54,12.66958 18.9786,9.35111 34.21956,24.400926 43.02035,42.480827 14.71582,30.23143 13.16486,65.10768 -4.61148,103.69784 -12.69024,27.54887 -27.88733,48.89763 -73.97231,103.91574 -43.63817,52.09702 -60.1705,75.31711 -73.35512,103.02917 -10.51019,22.09082 -14.02671,36.61578 -14.00734,57.85725 0.0152,16.66917 1.94896,26.55025 8.51537,43.51178 18.77995,48.51004 68.59647,91.11441 119.91053,102.55057 10.75462,2.39684 16.15089,2.45036 18.92036,0.18765 l 2.14192,-1.75 -2.03114,-7.90996 C 508.91401,604.23956 508,599.92119 508,598.99367 c 0,-0.92753 1.8,-5.36984 4,-9.87182 2.2,-4.50197 4,-8.3389 4,-8.52651 0,-0.18761 0.94812,-2.4845 2.10694,-5.1042 1.61685,-3.65515 2.33662,-4.4407 3.09434,-3.37712 0.75989,1.06664 0.85274,0.96989 0.40299,-0.41992 -0.86065,-2.65956 1.94182,-8.54422 4.59377,-9.64603 1.26608,-0.52603 11.07696,-1.44164 21.80196,-2.0347 10.725,-0.59306 30.75,-1.72891 44.5,-2.52411 32.58743,-1.88462 35.45975,-1.86051 38.29531,0.32145 2.62096,2.01683 3.06377,3.57163 12.79705,44.93264 6.39282,27.16593 6.58258,28.34072 4.97411,30.79554 -0.91974,1.4037 -2.66095,2.94528 -3.86936,3.42573 -1.20841,0.48045 -21.4764,1.90592 -45.03998,3.16771 -36.33905,1.94591 -43.13442,2.54703 -44.76335,3.9598 -1.05627,0.91609 -6.75197,4.40048 -12.65713,7.74308 -5.90516,3.3426 -12.17877,7.40313 -13.94136,9.02338 l -3.2047,2.94593 z m -6.87848,-44.3082 c -0.67703,-0.27392 -2.02703,-0.29059 -3,-0.0371 -0.97297,0.25354 -0.41903,0.47766 1.23097,0.49804 1.65,0.0204 2.44606,-0.18706 1.76903,-0.46099 z m 6.46014,-0.94823 c -0.33229,-0.33229 -1.1948,-0.36781 -1.91667,-0.0789 -0.79773,0.31922 -0.56078,0.55618 0.60417,0.60416 1.05416,0.0434 1.64479,-0.19293 1.3125,-0.52522 z m 4.95394,-16.58333 c -0.31922,-0.79773 -0.55618,-0.56078 -0.60416,0.60417 -0.0434,1.05416 0.19293,1.64479 0.52522,1.3125 0.33229,-0.33229 0.36781,-1.1948 0.0789,-1.91667 z m -1,-4 c -0.31922,-0.79773 -0.55618,-0.56078 -0.60416,0.60417 -0.0434,1.05416 0.19293,1.64479 0.52522,1.3125 0.33229,-0.33229 0.36781,-1.1948 0.0789,-1.91667 z m -2,-8 c -0.31922,-0.79773 -0.55618,-0.56078 -0.60416,0.60417 -0.0434,1.05416 0.19293,1.64479 0.52522,1.3125 0.33229,-0.33229 0.36781,-1.1948 0.0789,-1.91667 z m -1,-4 c -0.31922,-0.79773 -0.55618,-0.56078 -0.60416,0.60417 -0.0434,1.05416 0.19293,1.64479 0.52522,1.3125 0.33229,-0.33229 0.36781,-1.1948 0.0789,-1.91667 z m -1,-4 c -0.31922,-0.79773 -0.55618,-0.56078 -0.60416,0.60417 -0.0434,1.05416 0.19293,1.64479 0.52522,1.3125 0.33229,-0.33229 0.36781,-1.1948 0.0789,-1.91667 z m -72.0715,-136.50139 c -1.55575,-5.01395 -3.40151,-15.89546 -2.79866,-16.49928 0.37788,-0.37849 10.13705,-1.40818 21.68705,-2.2882 11.55,-0.88002 34.725,-2.69703 51.5,-4.03781 16.775,-1.34078 39.5,-3.11769 50.5,-3.94868 40.18181,-3.03554 73.48012,-5.52387 94,-7.02447 11.55,-0.84465 38.91674,-2.90686 60.81498,-4.58271 21.89823,-1.67584 41.21809,-2.90815 42.93289,-2.73847 3.0677,0.30353 3.1484,0.45135 5.0018,9.15845 1.0361,4.86746 1.7229,9.01083 1.5262,9.20749 -0.3944,0.39444 -58.68307,4.91026 -122.27587,9.47313 -22.55,1.61799 -49.775,3.62249 -60.5,4.45445 -10.725,0.83195 -44.7,3.30005 -75.5,5.48465 -30.8,2.18461 -58.32345,4.23764 -61.16322,4.56229 -4.41506,0.50475 -5.24464,0.32785 -5.72517,-1.22084 z"
       id="path1" />
  </g>
</svg>
